HIERARCHY
ROOT hip
{
  OFFSET 0 0 0
  CHANNELS 6 Xposition Yposition Zposition Zrotation Yrotation Xrotation
  JOINT abdomen
  {
    OFFSET 0 20.6881 -0.73152
    CHANNELS 3 Zrotation Xrotation Yrotation
    JOINT chest
    {
      OFFSET 0 11.7043 -0.48768
      CHANNELS 3 Zrotation Xrotation Yrotation
      JOINT neck
      {
        OFFSET 0 22.1894 -2.19456
        CHANNELS 3 Zrotation Xrotation Yrotation
        JOINT head
        {
          OFFSET -0.24384 7.07133 1.2192
          CHANNELS 3 Zrotation Xrotation Yrotation
          JOINT leftEye
          {
            OFFSET 4.14528 8.04674 8.04672
            CHANNELS 3 Zrotation Xrotation Yrotation
            End Site
            {
              OFFSET 1 0 0
            }
          }
          JOINT rightEye
          {
            OFFSET -3.6576 8.04674 8.04672
            CHANNELS 3 Zrotation Xrotation Yrotation
            End Site
            {
              OFFSET 1 0 0
            }
          }
        }
      }
      JOINT rCollar
      {
        OFFSET -2.68224 19.2634 -4.8768
        CHANNELS 3 Zrotation Xrotation Yrotation
        JOINT rShldr
        {
          OFFSET -8.77824 -1.95073 1.46304
          CHANNELS 3 Zrotation Xrotation Yrotation
          JOINT rForeArm
          {
            OFFSET -28.1742 -1.7115 0.48768
            CHANNELS 3 Zrotation Xrotation Yrotation
            JOINT rHand
            {
              OFFSET -22.5879 0.773209 7.07136
              CHANNELS 3 Zrotation Xrotation Yrotation
              JOINT rThumb1
              {
                OFFSET -1.2192 -0.487915 3.41376
                CHANNELS 3 Zrotation Xrotation Yrotation
                JOINT rThumb2
                {
                  OFFSET -3.37035 -0.52449 3.41376
                  CHANNELS 3 Zrotation Xrotation Yrotation
                  End Site
                  {
                    OFFSET -1.78271 -1.18214 1.43049
                  }
                }
              }
              JOINT rIndex1
              {
                OFFSET -7.75947 0.938293 5.60832
                CHANNELS 3 Zrotation Xrotation Yrotation
                JOINT rIndex2
                {
                  OFFSET -2.54057 -0.884171 1.56538
                  CHANNELS 3 Zrotation Xrotation Yrotation
                  End Site
                  {
                    OFFSET -1.62519 -0.234802 1.16502
                  }
                }
              }
              JOINT rMid1
              {
                OFFSET -8.24714 1.18213 3.41376
                CHANNELS 3 Zrotation Xrotation Yrotation
                JOINT rMid2
                {
                  OFFSET -3.10165 -0.590103 1.0647
                  CHANNELS 3 Zrotation Xrotation Yrotation
                  End Site
                  {
                    OFFSET -2.48547 -0.328903 0.83742
                  }
                }
              }
              JOINT rRing1
              {
                OFFSET -8.82822 0.546677 1.51678
                CHANNELS 3 Zrotation Xrotation Yrotation
                JOINT rRing2
                {
                  OFFSET -2.60934 -0.819778 -0.0198488
                  CHANNELS 3 Zrotation Xrotation Yrotation
                  End Site
                  {
                    OFFSET -2.33842 -0.294052 0.168128
                  }
                }
              }
              JOINT rPinky1
              {
                OFFSET -8.27202 -0.0477905 -0.4584
                CHANNELS 3 Zrotation Xrotation Yrotation
                JOINT rPinky2
                {
                  OFFSET -1.82734 -0.647385 -0.700984
                  CHANNELS 3 Zrotation Xrotation Yrotation
                  End Site
                  {
                    OFFSET -1.69225 -0.51767 -0.607171
                  }
                }
              }
            }
          }
        }
      }
      JOINT lCollar
      {
        OFFSET 2.68224 19.2634 -4.8768
        CHANNELS 3 Zrotation Xrotation Yrotation
        JOINT lShldr
        {
          OFFSET 8.77824 -1.95073 1.46304
          CHANNELS 3 Zrotation Xrotation Yrotation
          JOINT lForeArm
          {
            OFFSET 28.1742 -1.7115 0.48768
            CHANNELS 3 Zrotation Xrotation Yrotation
            JOINT lHand
            {
              OFFSET 22.5879 0.773209 7.07136
              CHANNELS 3 Zrotation Xrotation Yrotation
              JOINT lThumb1
              {
                OFFSET 1.2192 -0.487915 3.41376
                CHANNELS 3 Zrotation Xrotation Yrotation
                JOINT lThumb2
                {
                  OFFSET 3.37035 -0.52449 3.41376
                  CHANNELS 3 Zrotation Xrotation Yrotation
                  End Site
                  {
                    OFFSET 1.78271 -1.18214 1.43049
                  }
                }
              }
              JOINT lIndex1
              {
                OFFSET 7.75947 0.938293 5.60832
                CHANNELS 3 Zrotation Xrotation Yrotation
                JOINT lIndex2
                {
                  OFFSET 2.54057 -0.884171 1.56538
                  CHANNELS 3 Zrotation Xrotation Yrotation
                  End Site
                  {
                    OFFSET 1.62519 -0.234802 1.16502
                  }
                }
              }
              JOINT lMid1
              {
                OFFSET 8.24714 1.18213 3.41376
                CHANNELS 3 Zrotation Xrotation Yrotation
                JOINT lMid2
                {
                  OFFSET 3.10165 -0.590103 1.0647
                  CHANNELS 3 Zrotation Xrotation Yrotation
                  End Site
                  {
                    OFFSET 2.48547 -0.328903 0.83742
                  }
                }
              }
              JOINT lRing1
              {
                OFFSET 8.82822 0.546677 1.51678
                CHANNELS 3 Zrotation Xrotation Yrotation
                JOINT lRing2
                {
                  OFFSET 2.60934 -0.819778 -0.0198488
                  CHANNELS 3 Zrotation Xrotation Yrotation
                  End Site
                  {
                    OFFSET 2.33842 -0.294052 0.168128
                  }
                }
              }
              JOINT lPinky1
              {
                OFFSET 8.27202 -0.0477905 -0.4584
                CHANNELS 3 Zrotation Xrotation Yrotation
                JOINT lPinky2
                {
                  OFFSET 1.82734 -0.647385 -0.700984
                  CHANNELS 3 Zrotation Xrotation Yrotation
                  End Site
                  {
                    OFFSET 1.69225 -0.51767 -0.607171
                  }
                }
              }
            }
          }
        }
      }
    }
  }
  JOINT rButtock
  {
    OFFSET -8.77824 4.35084 1.2192
    CHANNELS 3 Zrotation Xrotation Yrotation
    JOINT rThigh
    {
      OFFSET 0 -1.70687 -2.19456
      CHANNELS 3 Zrotation Xrotation Yrotation
      JOINT rShin
      {
        OFFSET 0 -36.8199 0.73152
        CHANNELS 3 Zrotation Xrotation Yrotation
        JOINT rFoot
        {
          OFFSET 0.73152 -45.1104 -5.12064
          CHANNELS 3 Zrotation Xrotation Yrotation
          End Site
          {
            OFFSET -1.1221 -3.69964 12.103
          }
        }
      }
    }
  }
  JOINT lButtock
  {
    OFFSET 8.77824 4.35084 1.2192
    CHANNELS 3 Zrotation Xrotation Yrotation
    JOINT lThigh
    {
      OFFSET 0 -1.70687 -2.19456
      CHANNELS 3 Zrotation Xrotation Yrotation
      JOINT lShin
      {
        OFFSET 0 -36.8199 0.73152
        CHANNELS 3 Zrotation Xrotation Yrotation
        JOINT lFoot
        {
          OFFSET -0.73152 -45.1104 -5.12064
          CHANNELS 3 Zrotation Xrotation Yrotation
          End Site
          {
            OFFSET 1.1221 -3.69964 12.103
          }
        }
      }
    }
  }
}
MOTION
Frames:	8
Frame Time:	0.00833333
0.0 0.0 0.0 0.0 0.0 0.0 0.0 0.0 0.0 0.0 0.0 0.0 0.0 0.0 0.0 0.0 0.0 0.0 0.0 0.0 0.0 0.0 0.0 0.0 0.0 0.0 0.0 0.0 0.0 0.0 0.0 0.0 0.0 0.0 0.0 0.0 0.0 0.0 0.0 0.0 0.0 0.0 0.0 0.0 0.0 0.0 0.0 0.0 0.0 0.0 0.0 0.0 0.0 0.0 0.0 0.0 0.0 0.0 0.0 0.0 0.0 0.0 0.0 0.0 0.0 0.0 0.0 0.0 0.0 0.0 0.0 0.0 0.0 0.0 0.0 0.0 0.0 0.0 0.0 0.0 0.0 0.0 0.0 0.0 0.0 0.0 0.0 0.0 0.0 0.0 0.0 0.0 0.0 0.0 0.0 0.0 0.0 0.0 0.0 0.0 0.0 0.0 0.0 0.0 0.0 0.0 0.0 0.0 0.0 0.0 0.0 0.0 0.0 0.0 0.0 0.0 0.0 0.0 0.0 0.0 0.0 0.0 0.0 0.0 0.0 0.0 0.0 0.0 0.0 0.0 0.0 0.0
143.277 83.9622 12.2379 0.0 0.0 -0.0 0.0 0.0 -0.0 -0.0 -0.0 0.0 12.086107 9.490159 98.819281 -7.514184 13.392728 -98.942746 -0.0 -0.0 0.0 -0.0 -0.0 0.0 -155.504155 -3.514523 161.838528 -171.730711 -47.005088 157.363052 -17.831676 43.799489 -7.019726 89.940705 -70.745342 74.432205 -5.433768 5.264911 1.077842 12.421651 -15.04362 -5.516908 -1.39698 2.231723 0.807408 -161.05752 3.9298 108.528483 89.035113 -81.393384 59.759886 -177.847612 -38.891047 139.187798 -132.481743 54.102976 155.533585 -75.307555 -71.298722 -98.488206 -137.842018 -7.593608 -135.094894 3.837638 -3.262561 -1.960851 9.651699 34.836178 -11.199233 -7.342948 15.814737 2.867277 -165.562931 1.776025 -155.787908 163.827197 49.294914 -137.773727 -178.619005 -18.760041 -89.038626 29.005982 -34.066335 2.456744 -5.921393 -10.174578 2.968574 9.395162 13.11164 -5.135456 36.036059 51.723116 -29.832321 -31.418587 -68.798093 -7.436999 -0.004873 1.771387 -0.556475 31.777185 72.61808 -34.287058 -44.735211 86.377934 5.369007 -0.261907 -2.288304 4.251032 -180.0 75.749642 -0.0 -180.0 75.749642 -0.0 0.185714 12.975477 -165.372783 36.164721 2.208016 171.309928 -180.0 75.749642 -0.0 -180.0 75.749642 -0.0 -0.185714 12.975477 165.372783 -25.093363 5.255869 -168.532928
143.267 83.9567 12.1624 0.0 0.0 0.0 0.0 0.0 -0.0 -0.0 -0.0 0.0 11.483215 6.478691 81.370012 -8.135423 10.383433 -81.281682 -0.0 -0.0 0.0 -0.0 -0.0 0.0 -150.168677 21.535282 155.275413 26.245706 -24.069774 10.875015 3.994718 32.718032 -34.046948 169.885717 -18.669737 143.566723 -178.927535 -16.453687 89.421826 -148.390439 8.654798 79.023085 11.98129 -21.346868 -5.061629 -2.349977 6.761528 4.959797 -36.036059 51.723116 29.832321 -158.922643 13.823071 143.027673 0.000474 0.063711 0.020016 -71.947571 -86.862712 -83.16363 12.988419 44.344312 10.761472 -149.412524 9.962503 -141.093444 80.1661 68.371792 -83.260848 -16.928444 14.030768 0.169595 -167.614839 -8.824525 -169.793981 38.642471 65.264486 -22.639904 5.433768 5.264911 -1.077842 148.268322 -56.141245 -116.427921 -45.282556 -63.865437 -4.306423 65.834004 43.110011 -53.750068 -23.903801 -61.333833 -1.399383 8.685743 22.661985 -8.126562 -0.004875 1.770451 -0.556181 32.354182 72.831765 -34.872493 -25.916531 79.094076 -10.831563 149.184601 12.37248 140.467212 -0.0 0.0 -0.0 -0.0 -0.0 -0.0 6.817693 3.579341 71.6195 -2.63907 -61.652433 -93.186965 -0.0 0.0 -0.0 -0.0 -0.0 -0.0 -6.817693 3.579341 -71.6195 2.63907 -61.652433 93.186965
143.235 83.9563 12.0831 0.0 0.0 -0.0 0.0 0.0 -0.0 -0.0 -0.0 0.0 11.483215 6.478691 81.370012 -8.135423 10.383433 -81.281682 -0.0 -0.0 0.0 -0.0 -0.0 0.0 -150.168677 21.535282 155.275413 26.245706 -24.069774 10.875015 146.567725 59.105713 -168.037523 -154.722191 59.181491 130.719799 -0.491581 0.484673 0.077556 -30.147408 23.543274 26.994742 24.075919 -42.306446 -5.558499 16.718488 -9.729361 4.538354 -161.153703 -8.160616 143.465095 53.683558 -72.343021 24.146118 -71.925376 72.974006 89.771887 -143.592996 -48.112576 -159.341062 1.134951 3.04054 1.043633 -161.433546 52.879325 -149.706 80.1661 68.371792 -83.260848 -16.926784 14.142456 0.162407 -173.573229 -46.811392 -171.455219 10.454191 30.94531 -1.81025 87.917663 38.514751 -49.436516 1.703396 -16.002565 -26.118778 -45.282556 -63.865437 -4.306423 9.998862 24.354917 -14.394916 160.937898 -7.488186 -143.367502 -5.71416 2.141791 -0.632333 145.119466 0.267753 179.212454 135.222919 -49.56531 167.853474 -2.635909 7.319571 -2.408077 0.350536 -0.529499 0.523624 -0.0 0.0 -0.0 -0.0 -0.0 -0.0 6.817693 3.579341 71.6195 -144.599676 -72.967262 113.849515 -0.0 0.0 -0.0 -0.0 -0.0 -0.0 -6.817693 3.579341 -71.6195 2.63907 -61.652433 93.186965
143.199 83.9588 12.0126 0.0 0.0 -0.0 0.0 0.0 -0.0 -0.0 -0.0 0.0 11.483215 6.478691 81.370012 -8.135423 10.383433 -81.281682 -0.0 -0.0 0.0 -0.0 -0.0 0.0 -150.168677 21.535282 155.275413 26.245706 -24.069774 10.875015 146.567725 59.105713 -168.037523 -154.722191 59.181491 130.719799 -0.491581 0.484673 0.077556 -30.147408 23.543274 26.994742 24.075919 -42.306446 -5.558499 16.718488 -9.729361 4.538354 -161.153703 -8.160616 143.465095 53.683558 -72.343021 24.146118 -71.925376 72.974006 89.771887 -143.592996 -48.112576 -159.341062 1.134951 3.04054 1.043633 -161.433546 52.879325 -149.706 80.1661 68.371792 -83.260848 -16.926784 14.142456 0.162407 -173.573229 -46.811392 -171.455219 10.454191 30.94531 -1.81025 87.917663 38.514751 -49.436516 1.703396 -16.002565 -26.118778 -45.282556 -63.865437 -4.306423 9.998862 24.354917 -14.394916 160.937898 -7.488186 -143.367502 -5.71416 2.141791 -0.632333 145.119466 0.267753 179.212454 135.222919 -49.56531 167.853474 -2.635909 7.319571 -2.408077 0.350536 -0.529499 0.523624 -0.0 0.0 -0.0 -0.0 -0.0 -0.0 6.817693 3.579341 71.6195 -144.599676 -72.967262 113.849515 -0.0 0.0 -0.0 -0.0 -0.0 -0.0 -6.817693 3.579341 -71.6195 2.63907 -61.652433 93.186965
143.167 83.9596 11.9562 0.0 0.0 -0.0 0.0 0.0 -0.0 -0.0 -0.0 0.0 11.483215 6.478691 81.370012 -8.135423 10.383433 -81.281682 0.0 -0.0 -0.0 0.0 -0.0 -0.0 -150.168677 21.535282 155.275413 26.245706 -24.069774 10.875015 146.567725 59.105713 -168.037523 -154.722191 59.181491 130.719799 -0.491581 0.484673 0.077556 -30.147408 23.543274 26.994742 24.075919 -42.306446 -5.558499 16.718488 -9.729361 4.538354 -161.153703 -8.160616 143.465095 53.683558 -72.343021 24.146118 -71.925376 72.974006 89.771887 -143.592996 -48.112576 -159.341062 1.134951 3.04054 1.043633 -161.433546 52.879325 -149.706 80.1661 68.371792 -83.260848 -16.926784 14.142456 0.162407 -166.103094 3.037766 -170.137851 64.934236 72.723678 -46.90145 171.603563 -9.286185 -89.949897 -117.34871 -61.287986 -86.135956 6.245079 9.39801 -3.863813 170.968046 -9.646071 -111.592281 -0.047552 -0.138632 0.026316 85.277226 64.345576 -74.070557 145.12196 1.973689 179.748387 139.179732 81.290019 -163.57196 -9.908448 32.238307 -8.581688 1.211958 -2.292298 2.338651 -0.0 0.0 -0.0 -0.0 -0.0 -0.0 6.817693 3.579341 71.6195 -144.599676 -72.967262 113.849515 -0.0 0.0 -0.0 -0.0 -0.0 -0.0 -6.817693 3.579341 -71.6195 2.63907 -61.652433 93.186965
143.118 83.9605 11.9029 0.0 0.0 -0.0 0.0 0.0 -0.0 -0.0 -0.0 0.0 11.483215 6.478691 81.370012 -8.135423 10.383433 -81.281682 -0.0 -0.0 0.0 -0.0 -0.0 0.0 -150.168677 21.535282 155.275413 26.245706 -24.069774 10.875015 146.567725 59.105713 -168.037523 -154.722191 59.181491 130.719799 -0.491581 0.484673 0.077556 -30.147408 23.543274 26.994742 24.075919 -42.306446 -5.558499 16.718488 -9.729361 4.538354 -161.153703 -8.160616 143.465095 53.683558 -72.343021 24.146118 -71.925376 72.974006 89.771887 -143.592996 -48.112576 -159.341062 1.134951 3.04054 1.043633 -161.433546 52.879325 -149.706 80.1661 68.371792 -83.260848 -16.926784 14.142456 0.162407 -173.573229 -46.811392 -171.455219 10.454191 30.94531 -1.81025 87.917663 38.514751 -49.436516 1.703396 -16.002565 -26.118778 -45.282556 -63.865437 -4.306423 9.998862 24.354917 -14.394916 160.937898 -7.488186 -143.367502 -5.71416 2.141791 -0.632333 145.119466 0.267753 179.212454 135.222919 -49.56531 167.853474 -2.635909 7.319571 -2.408077 0.350536 -0.529499 0.523624 -0.0 0.0 -0.0 -0.0 -0.0 -0.0 6.817693 3.579341 71.6195 -144.599676 -72.967262 113.849515 -0.0 0.0 -0.0 -0.0 -0.0 -0.0 -6.817693 3.579341 -71.6195 2.63907 -61.652433 93.186965
143.079 83.9581 11.8298 0.0 0.0 -0.0 0.0 0.0 -0.0 -0.0 -0.0 0.0 11.483215 6.478691 81.370012 -8.135423 10.383433 -81.281682 -0.0 -0.0 0.0 -0.0 -0.0 0.0 -150.168677 21.535282 155.275413 26.245706 -24.069774 10.875015 146.567725 59.105713 -168.037523 -154.722191 59.181491 130.719799 -0.491581 0.484673 0.077556 -30.147408 23.543274 26.994742 24.075919 -42.306446 -5.558499 16.718488 -9.729361 4.538354 -161.153703 -8.160616 143.465095 53.683558 -72.343021 24.146118 -71.925376 72.974006 89.771887 -143.592996 -48.112576 -159.341062 1.134951 3.04054 1.043633 -161.433546 52.879325 -149.706 80.1661 68.371792 -83.260848 -16.926784 14.142456 0.162407 -173.573229 -46.811392 -171.455219 10.454191 30.94531 -1.81025 87.917663 38.514751 -49.436516 1.703396 -16.002565 -26.118778 -45.282556 -63.865437 -4.306423 9.998862 24.354917 -14.394916 160.937898 -7.488186 -143.367502 -5.71416 2.141791 -0.632333 145.119466 0.267753 179.212454 135.222919 -49.56531 167.853474 -2.635909 7.319571 -2.408077 0.350536 -0.529499 0.523624 -0.0 0.0 -0.0 -0.0 -0.0 -0.0 6.817693 3.579341 71.6195 -144.599676 -72.967262 113.849515 -0.0 0.0 -0.0 -0.0 -0.0 -0.0 -6.817693 3.579341 -71.6195 2.63907 -61.652433 93.186965
